<svg xmlns="http://www.w3.org/2000/svg" width="32" height="32" viewBox="0 0 32 32">
  <g id="document" transform="translate(-20 -216)">
    <rect id="Rectangle_12457" data-name="Rectangle 12457" width="32" height="32" transform="translate(20 216)" fill="#fff" opacity="0"/>
    <path id="Path_33067" data-name="Path 33067" d="M26.764,5.4h-1.8V3.6a.6.6,0,0,0-.6-.6H9.995a.729.729,0,0,0-.228.042.635.635,0,0,0-.2.132l-2.4,2.4a.583.583,0,0,0-.126.2A.6.6,0,0,0,7,5.995V25.159a.6.6,0,0,0,.6.6H9.4v1.8a.6.6,0,0,0,.6.6H26.764a.6.6,0,0,0,.6-.6V5.995A.6.6,0,0,0,26.764,5.4ZM9.569,7.965a.685.685,0,0,0-.132.192A.8.8,0,0,0,9.4,8.39V24.56H8.2V6.24L10.24,4.2H23.769V5.4H12.39a.729.729,0,0,0-.228.042.635.635,0,0,0-.2.132Zm16.6,18.991H10.593V8.636l2.042-2.042H26.165Z" transform="translate(19.696 217.018)" fill="#8258ed"/>
    <path id="Path_33068" data-name="Path 33068" d="M23.6,14.2h7.187a.6.6,0,1,0,0-1.2H23.6a.6.6,0,1,0,0,1.2Z" transform="translate(13.279 213.606)" fill="#daa520"/>
    <path id="Path_33069" data-name="Path 33069" d="M27.577,17H15.6a.6.6,0,0,0,0,1.2H27.577a.6.6,0,0,0,0-1.2Z" transform="translate(16.487 213.798)" fill="#daa520"/>
    <path id="Path_33070" data-name="Path 33070" d="M27.577,21H15.6a.6.6,0,1,0,0,1.2H27.577a.6.6,0,0,0,0-1.2Z" transform="translate(16.487 213.991)" fill="#daa520"/>
    <path id="Path_33071" data-name="Path 33071" d="M27.577,25H15.6a.6.6,0,1,0,0,1.2H27.577a.6.6,0,0,0,0-1.2Z" transform="translate(16.487 214.183)" fill="#daa520"/>
  </g>
</svg>
