<svg xmlns="http://www.w3.org/2000/svg" xmlns:xlink="http://www.w3.org/1999/xlink" width="73" height="73" viewBox="0 0 73 73"><defs><style>.a{fill:#855bf5;}.b{fill:#fff;}.c{filter:url(#a);}</style><filter id="a" x="0" y="0" width="73" height="73" filterUnits="userSpaceOnUse"><feOffset input="SourceAlpha"/><feGaussianBlur stdDeviation="3" result="b"/><feFlood flood-opacity="0.161"/><feComposite operator="in" in2="b"/><feComposite in="SourceGraphic"/></filter></defs><g transform="translate(9.363 9)"><g class="c" transform="matrix(1, 0, 0, 1, -9.36, -9)"><circle class="a" cx="27.5" cy="27.5" r="27.5" transform="translate(9 9)"/></g><g transform="translate(14.792 14.084)"><path class="b" d="M26.045,13a1.193,1.193,0,0,0-1.193,1.193v5.025a3.327,3.327,0,0,1-3.324,3.324H6.709a3.327,3.327,0,0,1-3.324-3.324V14.193a1.193,1.193,0,0,0-2.385,0v5.025a5.715,5.715,0,0,0,5.709,5.709h14.82a5.715,5.715,0,0,0,5.709-5.709V14.193A1.193,1.193,0,0,0,26.045,13Z" transform="translate(-1 1.312)"/><path class="b" d="M12.505,20.925a1.193,1.193,0,0,0,1.686,0l7.156-7.156a1.193,1.193,0,1,0-1.687-1.687l-5.12,5.12V2.193a1.193,1.193,0,1,0-2.385,0V17.2l-5.12-5.12A1.193,1.193,0,1,0,5.349,13.77Z" transform="translate(-0.229 -1)"/></g></g></svg>