<svg xmlns="http://www.w3.org/2000/svg" xmlns:xlink="http://www.w3.org/1999/xlink" width="51" height="51" viewBox="0 0 51 51"><defs><style>.a{fill:#855bf5;}.b{fill:#fff;}.c{filter:url(#a);}</style><filter id="a" x="0" y="0" width="51" height="51" filterUnits="userSpaceOnUse"><feOffset input="SourceAlpha"/><feGaussianBlur stdDeviation="3" result="b"/><feFlood flood-opacity="0.161"/><feComposite operator="in" in2="b"/><feComposite in="SourceGraphic"/></filter></defs><g transform="translate(9.799 9.436)"><g class="c" transform="matrix(1, 0, 0, 1, -9.8, -9.44)"><circle class="a" cx="16.5" cy="16.5" r="16.5" transform="translate(9 9)"/></g><g transform="translate(8.61 8.339)"><path class="b" d="M15.829,13a.706.706,0,0,0-.706.706v2.975a1.97,1.97,0,0,1-1.968,1.968H4.38a1.97,1.97,0,0,1-1.968-1.968V13.706a.706.706,0,0,0-1.412,0v2.975a3.384,3.384,0,0,0,3.38,3.38h8.774a3.384,3.384,0,0,0,3.38-3.38V13.706A.706.706,0,0,0,15.829,13Z" transform="translate(-1 -4.526)"/><path class="b" d="M9.444,12.8a.706.706,0,0,0,1,0l4.237-4.237a.706.706,0,1,0-1-1l-3.031,3.031V1.706a.706.706,0,0,0-1.412,0v8.887L6.205,7.562a.706.706,0,1,0-1,1Z" transform="translate(-2.175 -1)"/></g></g></svg>