<svg xmlns="http://www.w3.org/2000/svg" width="252" height="136" viewBox="0 0 252 136"><defs><style>.a{fill:#6bad8f;}.b{fill:rgba(57,101,81,0.44);mix-blend-mode:overlay;isolation:isolate;}</style></defs><g transform="translate(-160 -274)"><path class="a" d="M10,0H241.5a10,10,0,0,1,10,10V126a10,10,0,0,1-10,10H10A10,10,0,0,1,0,126V10A10,10,0,0,1,10,0Z" transform="translate(160.498 274)"/><path class="b" d="M0,26.585S7.08,12.546,19.177,13.77,35.461,34.429,53.05,31.333,73.883-3.769,90.165.369c18.384,3.165,28.453,50.035,47.163,50.294,21.46-.489,17.616-37.592,42.246-40.751C195.659,8.645,213.23,44.1,226.033,45.858c18.944.7,24.689-17.1,24.689-17.1L251.5,87.5H0Z" transform="translate(411.501 361.501) rotate(180)"/></g></svg>