<svg width="67" height="67" viewBox="0 0 67 67" fill="none" xmlns="http://www.w3.org/2000/svg">
<g id="Group 1">
<circle id="Ellipse 1" cx="33.5" cy="33.5" r="33.5" fill="#663694"/>
<g id="Group">
<path id="Vector" d="M35.9366 50.5142C38.6506 50.3383 41.3637 50.1625 44.3573 49.9684C43.1211 47.8485 41.5122 46.665 39.578 45.928C37.0253 44.9559 34.5874 45.4661 32.2661 46.7461C30.3656 47.7938 28.5126 48.9308 26.5775 49.9083C22.6856 51.8734 19.2646 51.3632 16.0869 48.3359C15.2096 47.4995 14.4853 47.3046 13.588 48.1865C13.3556 48.4151 13.0896 48.6128 12.8272 48.8087C11.1537 50.0513 9.72789 49.8473 8.375 48.1746C9.46187 47.0331 10.5296 45.8679 11.6465 44.75C12.7434 43.6522 13.8895 42.6036 15.1176 41.4338C15.6214 42.0497 16.0332 42.6401 16.5306 43.1457C21.1942 47.884 27.792 46.7862 30.7273 40.7961C33.3128 35.5212 31.1291 29.307 25.8496 27.0813C23.0983 25.9216 20.4809 26.3871 18.0584 28.0635C17.5364 28.4251 17.0654 28.8597 16.3639 29.0975C17.0071 28.1372 17.5719 27.1096 18.3153 26.235C19.0423 25.3786 19.9525 24.678 20.7815 23.9091C20.736 23.7679 20.6895 23.6276 20.6439 23.4864C19.2838 23.3962 17.9227 23.306 16.5625 23.2158C16.5671 23.1457 16.5716 23.0755 16.5753 23.0054C18.5914 22.876 20.6084 22.7585 22.6236 22.6118C23.5593 22.5444 24.4894 22.3941 25.4251 22.3303C27.3629 22.1973 29.2605 22.3676 31.0899 23.0965C31.3896 23.2158 31.7686 23.1347 32.1112 23.1457C32.0957 22.7949 32.1358 22.4305 32.0538 22.0962C31.6757 20.5529 31.3095 19.0032 30.8284 17.4909C30.7155 17.1365 30.1989 16.7247 29.8236 16.6746C28.652 16.5179 27.4585 16.5024 26.2723 16.4687C25.262 16.4404 24.2507 16.4632 23.2404 16.4632C23.2386 16.3111 23.2368 16.1589 23.234 16.0077C24.2234 16.0077 25.2128 16.0368 26.2004 16.0004C27.3446 15.9576 28.5062 15.9539 29.6231 15.7417C30.2171 15.6287 30.8749 15.2251 31.2621 14.7541C32.9603 12.6897 35.1987 11.6602 37.7596 11.5181C38.6333 11.4698 39.6336 12.1403 40.4226 12.6997C40.9236 13.0541 41.207 13.198 41.8046 12.9748C42.5116 12.7097 43.2951 12.6223 44.054 12.5366C44.2836 12.5102 44.7327 12.7225 44.7482 12.8637C44.7783 13.1279 44.6425 13.5142 44.4384 13.68C44.0339 14.0089 43.5648 14.3314 43.0701 14.4617C41.934 14.7614 41.7873 15.4447 41.8985 16.5006C42.0798 18.2352 42.1809 19.9907 42.1344 21.7326C42.0907 23.3689 41.4029 24.7937 39.9944 25.8897C43.2787 25.8833 46.4746 25.8633 48.9435 23.4135C49.5812 22.7803 50.7173 22.5918 50.8193 21.4475C51.8616 21.5213 52.5959 20.8918 53.3912 20.3716C53.4768 20.3151 54.0289 20.6686 54.028 20.8298C54.0198 22.0041 54.0034 23.1912 53.8139 24.3455C53.752 24.7254 53.2208 25.221 52.8218 25.3148C51.8579 25.5435 51.5199 26.2113 51.058 26.9738C48.5946 31.0353 45.4624 34.2594 40.3998 34.7778C39.6855 34.8507 39.4578 35.1422 39.5689 35.7982C39.9835 38.2434 39.6837 38.1878 41.8256 38.8119C44.627 39.6282 46.5438 41.6771 47.8093 44.2963C48.129 44.9586 48.4989 45.6428 48.6055 46.3535C48.857 48.0289 49.9393 48.4343 51.3851 48.4388C51.7942 48.4397 52.2032 48.4771 52.6123 48.4917C54.6238 48.5627 55.4164 49.5548 54.9564 51.519C54.8917 51.796 54.5364 52.1577 54.2631 52.2105C51.9727 52.6542 49.676 53.0769 47.3656 53.3876C47.0221 53.434 46.4045 52.9412 46.2432 52.5594C45.6747 51.2102 44.7035 50.8285 43.3242 50.8676C40.8717 50.9369 38.4165 50.8868 35.9621 50.8868C35.9539 50.761 35.9448 50.6381 35.9366 50.5142Z" fill="white"/>
<path id="Vector_2" d="M18.2672 33.843C19.4005 34.2848 20.5521 34.6848 21.6608 35.1804C22.5509 35.5785 23.2861 35.4364 24.0587 34.8934C25.0927 34.1673 26.1795 33.515 27.3921 33.0057C26.0046 34.2502 24.6426 35.5248 23.2014 36.7027C22.9955 36.8713 22.3432 36.6781 22.0079 36.4722C20.7243 35.6824 19.4852 34.8196 18.2298 33.9842C18.2426 33.9377 18.2544 33.8904 18.2672 33.843Z" fill="white"/>
</g>
</g>
</svg>
